<?xml version="1.0" encoding="utf-8"?>
<!-- Generator: Adobe Illustrator 15.1.0, SVG Export Plug-In . SVG Version: 6.00 Build 0)  -->
<!DOCTYPE svg PUBLIC "-//W3C//DTD SVG 1.1//EN" "http://www.w3.org/Graphics/SVG/1.1/DTD/svg11.dtd">
<svg version="1.1" id="Layer_1" xmlns="http://www.w3.org/2000/svg" xmlns:xlink="http://www.w3.org/1999/xlink" x="0px" y="0px"
	 width="378.628px" height="97.41px" viewBox="0 0 378.628 97.41" enable-background="new 0 0 378.628 97.41" xml:space="preserve">
<g>
	<path fill="#FFFFFF" d="M122.549,29.185h-0.905c-0.221-0.633-0.571-1.347-1.051-2.143c-0.481-0.796-1.112-1.545-1.895-2.245
		c-0.782-0.7-1.73-1.283-2.842-1.749c-1.112-0.468-2.423-0.7-3.933-0.7c-1.345,0-2.54,0.205-3.583,0.617s-1.915,0.988-2.615,1.729
		c-0.701,0.741-1.229,1.62-1.586,2.636s-0.535,2.142-0.535,3.378c0,1.977,0.556,3.864,1.668,5.662
		c1.112,1.799,2.505,3.576,4.18,5.333c1.675,1.757,3.487,3.515,5.437,5.271c1.949,1.758,3.761,3.584,5.437,5.479
		c1.673,1.896,3.067,3.879,4.18,5.951c1.111,2.072,1.667,4.303,1.667,6.689c0,1.785-0.308,3.578-0.926,5.375
		c-0.618,1.799-1.572,3.412-2.862,4.841c-1.291,1.429-2.952,2.587-4.983,3.479c-2.032,0.894-4.448,1.338-7.248,1.338
		c-1.565,0-3.055-0.144-4.469-0.434c-1.414-0.287-2.718-0.645-3.913-1.07c-1.194-0.424-2.264-0.885-3.212-1.377
		c-0.947-0.496-1.723-0.949-2.326-1.361l0.947-9.1h1.03c0.301,1.289,0.795,2.52,1.482,3.684c0.686,1.169,1.53,2.199,2.533,3.091
		c1.002,0.892,2.148,1.606,3.439,2.142c1.29,0.536,2.704,0.803,4.242,0.803c1.4,0,2.656-0.213,3.768-0.637
		c1.112-0.427,2.066-1.017,2.863-1.771c0.796-0.756,1.406-1.654,1.833-2.698c0.425-1.043,0.638-2.185,0.638-3.42
		c0-1.728-0.315-3.327-0.947-4.797c-0.631-1.468-1.462-2.862-2.492-4.181c-1.029-1.316-2.197-2.596-3.5-3.83
		c-1.305-1.235-2.643-2.478-4.016-3.728c-1.373-1.249-2.711-2.533-4.015-3.851c-1.304-1.317-2.472-2.725-3.501-4.221
		c-1.028-1.496-1.86-3.104-2.491-4.819c-0.632-1.715-0.947-3.603-0.947-5.662c0-2.169,0.418-4.125,1.255-5.87
		c0.837-1.742,1.95-3.231,3.336-4.468c1.386-1.235,2.958-2.183,4.716-2.841c1.756-0.66,3.568-0.989,5.437-0.989
		c1.372,0,2.635,0.111,3.788,0.329c1.154,0.221,2.19,0.481,3.11,0.782c0.92,0.303,1.723,0.605,2.41,0.906
		c0.685,0.304,1.249,0.551,1.688,0.742L122.549,29.185z"/>
	<path fill="#FFFFFF" d="M136.758,33.385c0-2.334-0.035-4.372-0.103-6.116c-0.07-1.744-0.151-3.246-0.248-4.51
		c-0.097-1.262-0.22-2.319-0.371-3.171c-0.15-0.852-0.309-1.565-0.473-2.142v-0.164h9.513v0.164
		c-0.164,0.576-0.315,1.29-0.453,2.142c-0.137,0.852-0.262,1.909-0.37,3.171c-0.11,1.264-0.193,2.766-0.248,4.51
		c-0.054,1.744-0.082,3.782-0.082,6.116v20.51l13.467-12.068c2.361-2.059,3.542-3.774,3.542-5.147h9.555v0.165
		c-0.714,0.22-1.394,0.502-2.038,0.844c-0.645,0.345-1.29,0.749-1.935,1.215c-0.646,0.468-1.319,0.995-2.019,1.586
		c-0.701,0.591-1.463,1.257-2.287,1.997l-12.065,10.996l16.556,19.563c0.494,0.604,1.029,1.215,1.606,1.832
		c0.575,0.617,1.153,1.188,1.729,1.709c0.575,0.522,1.139,0.976,1.688,1.359c0.548,0.385,1.056,0.633,1.523,0.74v0.166h-11.944
		c0-0.714-0.185-1.456-0.556-2.225c-0.37-0.769-1.036-1.742-1.996-2.924l-14.827-17.627v6.674c0,2.332,0.028,4.371,0.082,6.113
		c0.055,1.743,0.138,3.248,0.248,4.51c0.108,1.264,0.233,2.322,0.37,3.172c0.138,0.851,0.289,1.564,0.453,2.141v0.166h-9.513v-0.166
		c0.164-0.575,0.322-1.29,0.473-2.141c0.151-0.85,0.274-1.908,0.371-3.172c0.097-1.262,0.178-2.767,0.248-4.51
		c0.067-1.742,0.103-3.781,0.103-6.113L136.758,33.385L136.758,33.385z"/>
	<path fill="#FFFFFF" d="M177.982,52.783c0-2.334-0.034-4.373-0.103-6.117c-0.07-1.743-0.151-3.246-0.247-4.511
		c-0.098-1.261-0.221-2.318-0.37-3.17c-0.152-0.851-0.31-1.564-0.474-2.142v-0.165h9.512v0.165
		c-0.165,0.577-0.314,1.291-0.453,2.142c-0.137,0.852-0.262,1.909-0.369,3.17c-0.11,1.265-0.193,2.768-0.247,4.511
		c-0.056,1.744-0.083,3.783-0.083,6.117v9.967c0,2.334,0.027,4.371,0.083,6.115c0.054,1.742,0.137,3.247,0.247,4.51
		c0.107,1.263,0.232,2.32,0.369,3.17c0.139,0.852,0.288,1.565,0.453,2.142v0.166h-9.512v-0.166c0.164-0.575,0.321-1.29,0.474-2.142
		c0.149-0.85,0.272-1.907,0.37-3.17c0.096-1.263,0.177-2.768,0.247-4.51c0.068-1.744,0.103-3.781,0.103-6.115V52.783z M177.116,24.2
		c0-0.604,0.117-1.173,0.352-1.708c0.233-0.536,0.541-1.004,0.926-1.4c0.386-0.398,0.844-0.714,1.38-0.948
		c0.535-0.232,1.118-0.35,1.751-0.35c0.631,0,1.215,0.117,1.749,0.35c0.536,0.234,1.003,0.55,1.4,0.948
		c0.398,0.396,0.713,0.864,0.948,1.4c0.232,0.535,0.349,1.104,0.349,1.708c0,1.264-0.425,2.32-1.274,3.172
		c-0.853,0.851-1.91,1.276-3.172,1.276c-0.633,0-1.216-0.117-1.751-0.351c-0.536-0.232-0.994-0.549-1.38-0.947
		c-0.385-0.398-0.692-0.864-0.926-1.399C177.233,25.416,177.116,24.832,177.116,24.2z"/>
	<path fill="#FFFFFF" d="M226.414,51.095c0-3.627-0.729-6.288-2.183-7.991c-1.457-1.701-3.405-2.553-5.849-2.553
		c-0.881,0-1.867,0.185-2.965,0.556c-1.099,0.37-2.225,0.865-3.377,1.482c-1.153,0.617-2.308,1.34-3.461,2.161
		c-1.152,0.824-2.236,1.704-3.254,2.637l-0.08,5.396v9.967c0,2.334,0.025,4.371,0.08,6.115c0.057,1.742,0.139,3.247,0.25,4.51
		c0.107,1.263,0.23,2.32,0.368,3.17c0.14,0.852,0.288,1.565,0.453,2.142v0.166h-9.513v-0.166c0.164-0.575,0.322-1.29,0.474-2.142
		c0.149-0.85,0.272-1.907,0.371-3.17c0.094-1.263,0.177-2.768,0.246-4.51c0.069-1.744,0.103-3.781,0.103-6.115v-9.967
		c0-2.334-0.033-4.373-0.103-6.117c-0.069-1.743-0.152-3.246-0.246-4.511c-0.099-1.261-0.222-2.318-0.371-3.17
		c-0.151-0.851-0.31-1.564-0.474-2.142v-0.165h9.513v0.165c-0.22,0.686-0.392,1.559-0.515,2.614
		c-0.123,1.059-0.254,2.438-0.391,4.141c1.125-0.935,2.34-1.867,3.645-2.801c1.303-0.934,2.656-1.765,4.057-2.492
		s2.827-1.317,4.284-1.771c1.452-0.452,2.88-0.679,4.28-0.679c2.144,0,3.959,0.371,5.457,1.113c1.496,0.739,2.72,1.715,3.666,2.924
		c0.947,1.207,1.634,2.587,2.059,4.139c0.426,1.551,0.639,3.122,0.639,4.714V62.75c0,2.334,0.027,4.371,0.084,6.115
		c0.055,1.742,0.137,3.247,0.246,4.51c0.11,1.263,0.232,2.32,0.37,3.17c0.138,0.852,0.289,1.565,0.453,2.142v0.166h-9.513v-0.166
		c0.164-0.575,0.32-1.29,0.475-2.142c0.15-0.85,0.271-1.907,0.369-3.17c0.096-1.263,0.18-2.768,0.247-4.51
		c0.069-1.744,0.103-3.781,0.103-6.115V51.095H226.414z"/>
	<path fill="#FFFFFF" d="M264.427,79.593c-3.049,0-5.903-0.481-8.567-1.441c-2.663-0.961-4.983-2.367-6.959-4.222
		c-1.978-1.854-3.534-4.146-4.675-6.878c-1.141-2.731-1.709-5.854-1.709-9.368c0-3.104,0.521-5.979,1.564-8.63
		c1.043-2.649,2.485-4.947,4.323-6.898c1.841-1.948,3.988-3.472,6.445-4.57c2.458-1.099,5.112-1.646,7.971-1.646
		c2.825,0,5.448,0.487,7.864,1.461c2.416,0.976,4.51,2.39,6.279,4.242c1.772,1.854,3.174,4.146,4.201,6.878
		c1.03,2.732,1.586,5.844,1.67,9.329c-3.104-0.056-6.207-0.099-9.309-0.125c-3.104-0.024-6.328-0.04-9.679-0.04
		c-2.39,0-4.716,0.016-6.979,0.04c-2.267,0.026-4.304,0.069-6.117,0.125c0.166,2.854,0.611,5.437,1.34,7.741
		c0.729,2.306,1.73,4.277,3.007,5.91s2.827,2.89,4.651,3.768c1.826,0.88,3.894,1.318,6.199,1.318c1.592,0,3.096-0.186,4.51-0.555
		c1.414-0.373,2.699-0.888,3.852-1.547c1.152-0.658,2.184-1.434,3.089-2.326c0.906-0.892,1.673-1.859,2.306-2.902l0.496,0.246
		l-3.05,7.33c-1.483,0.771-3.253,1.422-5.313,1.957C269.78,79.324,267.31,79.593,264.427,79.593z M258.949,54.471
		c2.745,0,5.498-0.007,8.258-0.021s5.265-0.063,7.516-0.146c-0.246-2.39-0.713-4.529-1.4-6.425c-0.685-1.895-1.563-3.5-2.636-4.818
		c-1.071-1.317-2.333-2.333-3.789-3.047c-1.454-0.714-3.062-1.071-4.817-1.071c-1.594,0-3.055,0.35-4.387,1.05
		c-1.331,0.7-2.49,1.709-3.48,3.028c-0.987,1.317-1.782,2.93-2.387,4.838c-0.604,1.909-0.961,4.085-1.072,6.528
		c1.236,0.057,2.539,0.082,3.914,0.082C256.039,54.471,257.466,54.471,258.949,54.471z"/>
	<path fill="#FFFFFF" d="M306.599,76.421c0.822,0,1.641-0.15,2.449-0.453c0.811-0.301,1.593-0.713,2.349-1.236
		c0.755-0.52,1.481-1.115,2.183-1.791c0.699-0.673,1.354-1.379,1.955-2.12l0.414,0.206l-2.679,6.633
		c-0.329,0.164-0.733,0.362-1.215,0.596c-0.479,0.232-1.06,0.453-1.729,0.658c-0.675,0.207-1.464,0.385-2.369,0.537
		c-0.906,0.148-1.976,0.227-3.213,0.227c-3.679,0-6.541-0.997-8.586-2.986c-2.047-1.99-3.068-5.102-3.068-9.329V39.893l-6.918,0.246
		v-3.625c0.852,0.056,1.867,0.098,3.047,0.124c1.181,0.028,2.473,0.041,3.871,0.041c-0.028-1.949-0.075-3.673-0.145-5.168
		c-0.068-1.496-0.15-2.801-0.246-3.913c-0.097-1.111-0.214-2.052-0.351-2.82c-0.138-0.77-0.274-1.415-0.412-1.936v-0.165h9.515
		v0.165c-0.166,0.521-0.318,1.166-0.453,1.936c-0.138,0.769-0.254,1.702-0.352,2.8c-0.096,1.1-0.18,2.396-0.247,3.893
		c-0.067,1.497-0.116,3.233-0.144,5.209c1.729-0.026,3.425-0.062,5.086-0.103c1.66-0.042,3.172-0.096,4.529-0.165
		c1.359-0.068,2.512-0.137,3.459-0.206c0.947-0.068,1.572-0.129,1.875-0.185l-0.742,4.201c-1.4-0.027-2.867-0.069-4.406-0.125
		c-1.317-0.054-2.827-0.096-4.53-0.123s-3.459-0.055-5.271-0.081v28.333c0,1.701,0.186,3.082,0.556,4.141
		c0.37,1.057,0.851,1.887,1.44,2.491c0.59,0.603,1.263,1.017,2.02,1.235C305.025,76.313,305.802,76.421,306.599,76.421z"/>
	<path fill="#FFFFFF" d="M324.306,52.783c0-2.334-0.034-4.373-0.102-6.117c-0.07-1.743-0.151-3.246-0.248-4.511
		c-0.098-1.261-0.221-2.318-0.371-3.17c-0.151-0.851-0.309-1.564-0.473-2.142v-0.165h9.512v0.165
		c-0.164,0.577-0.314,1.291-0.451,2.142c-0.139,0.852-0.262,1.909-0.371,3.17c-0.108,1.265-0.192,2.768-0.246,4.511
		c-0.057,1.744-0.084,3.783-0.084,6.117v9.967c0,2.334,0.027,4.371,0.084,6.115c0.054,1.742,0.138,3.247,0.246,4.51
		c0.109,1.263,0.232,2.32,0.371,3.17c0.137,0.852,0.287,1.565,0.451,2.142v0.166h-9.512v-0.166c0.164-0.575,0.32-1.29,0.473-2.142
		c0.15-0.85,0.273-1.907,0.371-3.17c0.097-1.263,0.178-2.768,0.248-4.51c0.066-1.744,0.102-3.781,0.102-6.115V52.783z M323.442,24.2
		c0-0.604,0.116-1.173,0.351-1.708c0.231-0.536,0.541-1.004,0.926-1.4c0.386-0.398,0.844-0.714,1.379-0.948
		c0.535-0.232,1.119-0.35,1.752-0.35c0.631,0,1.215,0.117,1.75,0.35c0.535,0.234,1.001,0.55,1.4,0.948
		c0.396,0.396,0.713,0.864,0.945,1.4c0.233,0.535,0.352,1.104,0.352,1.708c0,1.264-0.426,2.32-1.276,3.172
		c-0.853,0.851-1.908,1.276-3.171,1.276c-0.633,0-1.217-0.117-1.752-0.351c-0.535-0.232-0.993-0.549-1.378-0.947
		c-0.386-0.398-0.694-0.864-0.927-1.399C323.559,25.416,323.442,24.832,323.442,24.2z"/>
	<path fill="#FFFFFF" d="M378.628,70.08l-3.049,7.33c-0.74,0.33-1.593,0.633-2.554,0.905c-0.962,0.274-1.956,0.511-2.985,0.7
		c-1.028,0.193-2.064,0.337-3.108,0.434c-1.044,0.096-2.031,0.145-2.964,0.145c-3.323,0-6.393-0.487-9.206-1.461
		c-2.815-0.977-5.244-2.396-7.289-4.264c-2.048-1.867-3.646-4.16-4.798-6.879c-1.152-2.718-1.729-5.82-1.729-9.307
		c0-3.104,0.597-5.979,1.791-8.63c1.194-2.649,2.854-4.947,4.983-6.897c2.128-1.948,4.632-3.472,7.517-4.57
		c2.882-1.099,6.013-1.646,9.39-1.646c1.537,0,3.186,0.13,4.942,0.391c1.757,0.26,3.321,0.597,4.694,1.009l2.923,7.002l-0.493,0.287
		c-0.688-0.85-1.504-1.626-2.451-2.326c-0.945-0.7-1.99-1.297-3.129-1.792c-1.14-0.493-2.341-0.878-3.604-1.152
		c-1.264-0.275-2.553-0.412-3.871-0.412c-2.143,0-4.092,0.377-5.85,1.132c-1.758,0.756-3.267,1.848-4.527,3.275
		c-1.266,1.427-2.246,3.178-2.946,5.25c-0.7,2.074-1.049,4.428-1.049,7.063c0,2.967,0.335,5.725,1.009,8.277
		c0.673,2.555,1.673,4.771,3.006,6.652c1.331,1.88,3.008,3.35,5.024,4.406c2.019,1.058,4.386,1.584,7.104,1.584
		c1.262,0,2.518-0.156,3.768-0.473c1.248-0.314,2.43-0.771,3.541-1.359c1.113-0.59,2.135-1.297,3.068-2.121
		c0.934-0.822,1.715-1.756,2.348-2.801L378.628,70.08z"/>
</g>
<g>
	<path fill="#8F4D5D" d="M50.081,47.026c1.655,0,2.997,1.342,2.997,2.994c0,1.657-1.342,2.998-2.997,2.998
		c-1.655,0-2.997-1.341-2.997-2.998C47.084,48.368,48.426,47.026,50.081,47.026z"/>
	<path fill="#8F4D5D" d="M25.072,47.026c1.656,0,2.998,1.342,2.998,2.994c0,1.657-1.342,2.998-2.998,2.998
		c-1.654,0-2.997-1.341-2.997-2.998C22.075,48.368,23.417,47.026,25.072,47.026z"/>
	<path fill="#8F4D5D" d="M54.464,57.917h-0.068c-3.659-0.207-7.11-1.765-9.685-4.373c-0.445-0.461-0.433-1.194,0.028-1.639
		c0.46-0.447,1.195-0.436,1.64,0.026c0.016,0.017,0.032,0.032,0.047,0.05c2.169,2.155,5.052,3.441,8.105,3.619
		c0.64,0.02,1.145,0.552,1.126,1.193c-0.019,0.641-0.554,1.146-1.194,1.127L54.464,57.917L54.464,57.917z"/>
	<path fill="#8F4D5D" d="M47.084,30.655h-9.443c-0.641,0-1.161-0.521-1.161-1.161c0-0.64,0.52-1.16,1.161-1.16h9.443
		c0.641,0,1.16,0.521,1.16,1.16C48.244,30.135,47.725,30.655,47.084,30.655z"/>
	<path fill="#8F4D5D" d="M47.727,71.276c-0.64,0.001-1.16-0.519-1.16-1.159c0-0.275,0.099-0.543,0.278-0.752
		c0.523-0.543,0.797-1.277,0.757-2.029c-0.088-1.039-0.874-2.224-2.21-3.336c-0.514-0.387-0.62-1.111-0.238-1.623
		c0.382-0.516,1.109-0.621,1.623-0.238c0.035,0.021,0.068,0.052,0.099,0.08c1.843,1.537,2.894,3.236,3.039,4.923
		c0.099,1.371-0.372,2.721-1.302,3.729C48.392,71.13,48.068,71.279,47.727,71.276z"/>
	<path fill="#8F4D5D" d="M37.577,61.322c-1.378-0.047-2.693-0.596-3.697-1.539c-0.422-0.425-0.421-1.107,0.002-1.531
		c0.378-0.375,0.975-0.422,1.406-0.105c1.583,1.361,2.996,1.361,4.579,0c0.482-0.354,1.159-0.249,1.513,0.23
		c0.316,0.431,0.271,1.029-0.105,1.406C40.27,60.727,38.956,61.275,37.577,61.322z"/>
	<path fill="#8F4D5D" d="M45.894,66.166c-0.224-0.394-0.724-0.533-1.118-0.31l-0.146,0.083c-0.181,0.083-0.372,0.141-0.569,0.166
		c-0.274,0.043-0.551,0.064-0.829,0.072c-0.595,0.01-1.19-0.027-1.779-0.118c-0.144-0.021-0.834-0.192-0.913-0.211
		c-0.646-0.132-1.317,0.019-1.847,0.407c-0.338,0.209-0.719,0.338-1.114,0.379c-0.396-0.038-0.778-0.168-1.116-0.377
		c-0.531-0.391-1.202-0.539-1.848-0.408c-0.078,0.018-0.77,0.188-0.913,0.214c-0.589,0.087-1.185,0.125-1.78,0.116
		c-0.278-0.006-0.556-0.031-0.83-0.074c-0.197-0.023-0.389-0.081-0.568-0.163l-0.146-0.085c-0.394-0.225-0.895-0.087-1.12,0.307
		c-0.186,0.326-0.126,0.736,0.144,0.998c0.344,0.318,0.755,0.555,1.203,0.694c0.366,0.129,0.742,0.216,1.126,0.271
		c0.723,0.127,1.459,0.162,2.191,0.101c0.341-0.071,0.689-0.103,1.037-0.093c0.239,0.055,0.387,0.246,0.591,0.365
		c0.218,0.129,0.45,0.229,0.692,0.301c0.87,0.264,1.797,0.264,2.666,0c0.242-0.072,0.475-0.172,0.692-0.301
		c0.207-0.119,0.352-0.31,0.591-0.365c0.348-0.01,0.696,0.021,1.038,0.093c0.732,0.062,1.468,0.026,2.191-0.101
		c0.382-0.055,0.759-0.142,1.125-0.271c0.447-0.14,0.858-0.376,1.203-0.694C46.018,66.901,46.078,66.492,45.894,66.166z"/>
	<path fill="#8F4D5D" d="M37.609,73.164c-0.649-0.004-1.289-0.151-1.871-0.44c-0.563-0.304-0.773-1.009-0.468-1.573
		c0.284-0.523,0.923-0.75,1.474-0.516c0.542,0.283,1.187,0.283,1.728,0c0.59-0.252,1.271,0.025,1.521,0.613
		c0.233,0.553,0.01,1.189-0.516,1.476C38.896,73.007,38.258,73.16,37.609,73.164z"/>
	<path fill="#8F4D5D" d="M31.412,42.349c-1.314-0.104-2.667-0.178-4.011-0.295c-1.348-0.091-2.696-0.2-4.042-0.367
		c0,0-1.516-0.191-2.023-0.233c-0.619-0.047-1.24-0.061-1.86-0.04c-1.269,0.177-2.497,0.577-3.626,1.184l-0.036,0.018
		c-0.254,0.13-0.566,0.029-0.696-0.225c-0.115-0.225-0.051-0.498,0.148-0.649c1.173-0.877,2.507-1.515,3.926-1.875
		c0.365-0.085,1.702-0.226,1.702-0.226l0.517-0.011l2.07-0.021c1.38,0,2.758,0.084,4.127,0.255c1.389,0.141,2.766,0.389,4.118,0.739
		c0.475,0.128,0.757,0.616,0.629,1.093c-0.111,0.414-0.502,0.689-0.93,0.657L31.412,42.349z"/>
	<path fill="#8F4D5D" d="M43.426,40.602c1.351-0.351,2.728-0.6,4.117-0.738c1.37-0.172,2.748-0.257,4.128-0.257l2.07,0.022
		l1.098,0.043c0.377,0.043,0.753,0.105,1.123,0.192c1.419,0.361,2.754,0.999,3.926,1.876c0.23,0.168,0.281,0.492,0.113,0.724
		c-0.151,0.208-0.433,0.274-0.661,0.153l-0.036-0.021c-1.13-0.605-2.36-1.007-3.629-1.184c-0.303-0.033-0.607-0.047-0.911-0.043
		l-0.945,0.083l-2.023,0.233c-1.347,0.167-2.695,0.276-4.043,0.367c-1.344,0.117-2.693,0.19-4.011,0.295h-0.014
		c-0.49,0.04-0.919-0.328-0.958-0.818C42.736,41.103,43.013,40.712,43.426,40.602L43.426,40.602z"/>
	<path fill="#8F4D5D" d="M17.404,47.749c0.368,0.534,0.877,0.956,1.47,1.223c0.191,0.079,0.392,0.134,0.597,0.16
		c0.303,0.041,0.611-0.006,0.888-0.138c0.638-0.406,1.299-0.773,1.981-1.103c0.454-0.152,0.92-0.268,1.392-0.346
		c0.892-0.168,1.811-0.113,2.677,0.16c0.923,0.327,1.79,0.793,2.571,1.384l0.006,0.003c0.342,0.254,0.827,0.183,1.082-0.159
		c0.225-0.303,0.198-0.725-0.064-0.997c-0.79-0.919-1.773-1.649-2.88-2.143c-1.188-0.483-2.487-0.621-3.749-0.396
		c-1.248,0.179-2.432,0.666-3.442,1.421c-0.167,0.17-0.356,0.317-0.563,0.437c-0.468,0.001-0.931-0.091-1.364-0.268l-0.056-0.018
		c-0.265-0.079-0.544,0.07-0.625,0.335C17.282,47.457,17.311,47.621,17.404,47.749L17.404,47.749z"/>
	<path fill="#8F4D5D" d="M57.825,47.31c-0.079-0.267-0.357-0.418-0.624-0.339c0,0,0,0-0.001,0l-0.055,0.018
		c-0.432,0.177-0.896,0.269-1.364,0.268c-0.206-0.119-0.396-0.267-0.562-0.437c-1.011-0.755-2.195-1.242-3.442-1.421
		c-1.262-0.226-2.562-0.088-3.748,0.396c-1.107,0.493-2.09,1.224-2.88,2.143c-0.289,0.314-0.266,0.806,0.049,1.092
		c0.269,0.245,0.672,0.27,0.968,0.062l0.007-0.008c0.781-0.586,1.647-1.052,2.57-1.378c0.866-0.273,1.785-0.327,2.676-0.159
		c0.473,0.076,0.939,0.193,1.392,0.346c0.682,0.327,1.344,0.695,1.982,1.102c0.276,0.132,0.585,0.179,0.888,0.139
		c0.206-0.027,0.406-0.081,0.597-0.162c0.593-0.266,1.102-0.688,1.47-1.222C57.84,47.62,57.868,47.459,57.825,47.31z"/>
	<path fill="#8F4D5D" d="M37.577,92.66c-0.427,0-0.774-0.348-0.774-0.773v-1.549c0-0.426,0.347-0.772,0.774-0.772
		c0.427,0,0.773,0.347,0.773,0.772v1.549C38.35,92.313,38.004,92.66,37.577,92.66z M37.577,87.244c-0.427,0-0.774-0.346-0.774-0.771
		v-1.549c0-0.428,0.347-0.772,0.774-0.772c0.427,0,0.773,0.347,0.773,0.772v1.549C38.35,86.898,38.004,87.244,37.577,87.244z
		 M37.577,81.83c-0.427,0-0.774-0.346-0.774-0.773v-1.547c0-0.426,0.347-0.772,0.774-0.772c0.427,0,0.773,0.347,0.773,0.772v1.547
		C38.35,81.484,38.004,81.83,37.577,81.83z M37.577,76.417c-0.427,0-0.774-0.349-0.774-0.775v-1.549c0-0.424,0.347-0.77,0.774-0.77
		c0.427,0,0.773,0.348,0.773,0.77v1.549C38.35,76.069,38.004,76.417,37.577,76.417z M37.577,71.001
		c-0.427,0-0.774-0.346-0.774-0.771v-1.547c0-0.43,0.347-0.773,0.774-0.773c0.427,0,0.773,0.346,0.773,0.773v1.547
		C38.35,70.656,38.004,71.001,37.577,71.001z M37.577,65.589c-0.427,0-0.774-0.348-0.774-0.774v-1.547
		c0-0.429,0.347-0.774,0.774-0.774c0.427,0,0.773,0.348,0.773,0.774v1.547C38.35,65.242,38.004,65.589,37.577,65.589z
		 M37.577,60.175c-0.427,0-0.774-0.348-0.774-0.773v-1.548c0-0.429,0.347-0.772,0.774-0.772c0.427,0,0.773,0.346,0.773,0.772v1.548
		C38.35,59.828,38.004,60.175,37.577,60.175z M37.577,54.761c-0.427,0-0.774-0.35-0.774-0.773V52.44
		c0-0.427,0.347-0.772,0.774-0.772c0.427,0,0.773,0.347,0.773,0.772v1.548C38.35,54.412,38.004,54.761,37.577,54.761z
		 M37.577,49.345c-0.427,0-0.774-0.345-0.774-0.771v-1.548c0-0.427,0.347-0.773,0.774-0.773c0.427,0,0.773,0.347,0.773,0.773v1.548
		C38.35,49,38.004,49.345,37.577,49.345z M37.577,43.933c-0.427,0-0.774-0.348-0.774-0.774v-1.546c0-0.428,0.347-0.774,0.774-0.774
		c0.427,0,0.773,0.347,0.773,0.774v1.546C38.35,43.585,38.004,43.933,37.577,43.933z M37.577,38.517
		c-0.427,0-0.774-0.345-0.774-0.772v-1.547c0-0.427,0.347-0.773,0.774-0.773c0.427,0,0.773,0.347,0.773,0.773v1.547
		C38.35,38.172,38.004,38.517,37.577,38.517z M37.577,33.104c-0.427,0-0.774-0.347-0.774-0.772v-1.549
		c0-0.426,0.347-0.772,0.774-0.772c0.427,0,0.773,0.347,0.773,0.772v1.549C38.35,32.757,38.004,33.104,37.577,33.104z M37.577,27.69
		c-0.427,0-0.774-0.348-0.774-0.774v-1.547c0-0.428,0.347-0.773,0.774-0.773c0.427,0,0.773,0.346,0.773,0.773v1.547
		C38.35,27.343,38.004,27.69,37.577,27.69z M37.577,22.274c-0.427,0-0.774-0.346-0.774-0.772v-1.548
		c0-0.426,0.347-0.772,0.774-0.772c0.427,0,0.773,0.347,0.773,0.772v1.548C38.35,21.929,38.004,22.274,37.577,22.274z M37.577,16.86
		c-0.427,0-0.774-0.347-0.774-0.772v-1.547c0-0.427,0.347-0.773,0.774-0.773c0.427,0,0.773,0.347,0.773,0.773v1.547
		C38.35,16.514,38.004,16.86,37.577,16.86z M37.577,11.446c-0.427,0-0.774-0.345-0.774-0.772V9.127c0-0.428,0.347-0.773,0.774-0.773
		c0.427,0,0.773,0.346,0.773,0.773v1.547C38.35,11.102,38.004,11.446,37.577,11.446z M37.577,6.032
		c-0.427,0-0.774-0.346-0.774-0.773V3.713c0-0.427,0.347-0.773,0.774-0.773c0.427,0,0.773,0.347,0.773,0.773v1.546
		C38.35,5.687,38.004,6.032,37.577,6.032z"/>
	<path fill="#8F4D5D" d="M16.331,73.738l-0.965-0.527c-0.171-0.092-0.312-0.233-0.405-0.404l-0.528-0.965
		c-0.251-0.461-0.735-0.748-1.262-0.748l0,0c-0.526,0-1.012,0.287-1.265,0.748l-0.527,0.965c-0.093,0.171-0.234,0.313-0.405,0.404
		l-0.964,0.527C9.312,74.121,9.056,75,9.44,75.695c0.131,0.242,0.329,0.439,0.57,0.573l0.964,0.526
		c0.171,0.094,0.312,0.233,0.405,0.404l0.529,0.967c0.253,0.461,0.738,0.748,1.263,0.748l0,0c0.527,0,1.011-0.289,1.262-0.75
		l0.527-0.965c0.094-0.171,0.235-0.312,0.406-0.404l0.963-0.526c0.699-0.382,0.955-1.259,0.573-1.958
		c-0.131-0.239-0.331-0.439-0.573-0.572H16.331z M13.169,75.705c-0.198-0.268-0.434-0.504-0.703-0.701
		c0.268-0.199,0.504-0.435,0.703-0.703c0.198,0.27,0.435,0.504,0.702,0.703C13.604,75.201,13.367,75.438,13.169,75.705
		L13.169,75.705z"/>
	<path fill="#8F4D5D" d="M9.258,67.632L7.899,66.89c-0.32-0.176-0.583-0.438-0.759-0.758l-0.742-1.358
		c-0.413-0.755-1.359-1.032-2.113-0.618c-0.261,0.143-0.476,0.355-0.619,0.618l-0.74,1.356c-0.175,0.32-0.438,0.584-0.759,0.76
		l-1.359,0.742c-0.753,0.412-1.03,1.359-0.616,2.113c0.142,0.26,0.357,0.475,0.616,0.616l1.359,0.743
		c0.32,0.176,0.583,0.438,0.757,0.76l0.742,1.356c0.413,0.755,1.359,1.032,2.113,0.618c0.262-0.145,0.477-0.357,0.619-0.618
		l0.743-1.356c0.175-0.32,0.438-0.584,0.758-0.76l1.359-0.743c0.753-0.411,1.03-1.36,0.617-2.112
		C9.732,67.987,9.518,67.775,9.258,67.632L9.258,67.632z M6.787,69.067c-0.71,0.392-1.294,0.974-1.682,1.685l-0.072,0.131
		l-0.072-0.131c-0.388-0.711-0.972-1.293-1.682-1.681l-0.133-0.073l0.133-0.072c0.709-0.389,1.293-0.971,1.682-1.682l0.072-0.133
		l0.073,0.133c0.387,0.711,0.97,1.293,1.68,1.682l0.132,0.072L6.787,69.067z"/>
	<path fill="#8F4D5D" d="M70.254,46.607c-0.052-0.056-0.109-0.104-0.164-0.154c1.25-7.087,1.197-19.775-2.179-26.775
		C62.41,8.274,49.657,0,37.592,0H37.57C25.498,0,12.746,8.276,7.246,19.678c-3.375,7-3.429,19.688-2.179,26.775
		c-0.054,0.054-0.112,0.102-0.165,0.154c-1.651,1.791-2.299,4.361-1.821,7.236c0.741,4.467,5.245,9.262,9.795,9.281
		c1.541,5.233,3.849,9.449,6.873,12.381c2.268,2.272,4.812,4.256,7.572,5.897c-0.386,3.368-1.974,11.149-8.483,13.769
		c-0.595,0.236-0.883,0.914-0.644,1.509c0.176,0.438,0.603,0.729,1.076,0.729c0.149,0,0.296-0.031,0.434-0.084
		c7.116-2.861,9.195-10.652,9.805-14.775c1.883,0.891,3.853,1.58,5.877,2.06c1.445,0.341,2.949,0.341,4.392,0
		c2.025-0.479,3.996-1.169,5.878-2.06c0.608,4.119,2.688,11.914,9.806,14.775c0.595,0.238,1.271-0.052,1.509-0.646l0,0
		c0.239-0.595-0.049-1.271-0.644-1.509c-6.508-2.616-8.097-10.396-8.483-13.769c2.762-1.642,5.306-3.625,7.574-5.897
		c3.022-2.932,5.33-7.146,6.872-12.381c4.55-0.021,9.054-4.814,9.794-9.281C72.553,50.968,71.906,48.398,70.254,46.607z
		 M5.363,53.464c-0.43-1.86,0.027-3.813,1.237-5.284c1.069-1.073,2.523-1.671,4.037-1.662c0.016,1.365,0.063,2.698,0.143,4
		c-0.836-0.336-1.74-0.472-2.639-0.397c-0.637,0.065-1.101,0.635-1.036,1.271c0.064,0.634,0.627,1.095,1.26,1.035
		c0.996-0.102,1.981,0.279,2.651,1.023c0.248,2.452,0.654,4.883,1.214,7.281c-3.097-0.484-6.344-4.126-6.865-7.27H5.363V53.464z
		 M53.792,73.837c-3.577,3.469-7.816,6.897-14.56,8.509c-1.089,0.259-2.224,0.259-3.313,0c-6.742-1.608-10.982-5.039-14.559-8.509
		c-5.796-5.621-8.773-16.551-8.378-30.771c0.208-3.514,0.672-7.007,1.386-10.452c6.694-0.979,10.805-6.661,13.879-10.946
		c2.265-3.341,6.073-5.302,10.108-5.204c3.39,0.058,6.517,1.836,8.3,4.719c0.452,0.751,1.239,1.235,2.113,1.3
		c0.278,0.016,0.535,0.023,0.777,0.03c0.5-0.017,1.001,0.045,1.483,0.182c2.166,0.758,3.39,2.638,4.689,4.627
		c0.567,0.906,1.187,1.776,1.856,2.608c0.807,0.965,1.802,1.755,2.924,2.326c1.011,3.517,1.575,7.149,1.674,10.808
		C62.567,57.287,59.59,68.216,53.792,73.837z M59.297,28.483c-0.611-0.763-1.176-1.562-1.694-2.392
		c-1.381-2.114-2.946-4.51-5.831-5.52c-0.699-0.222-1.431-0.326-2.165-0.31c-0.222-0.007-0.457-0.015-0.71-0.028
		c-0.139-0.022-0.26-0.108-0.326-0.231c-2.196-3.508-6.003-5.682-10.14-5.787c-4.781-0.095-9.292,2.21-12.016,6.14
		c-3.335,4.651-7.48,10.447-14.585,10.157c-0.621-0.039-1.156,0.435-1.194,1.055c-0.038,0.62,0.435,1.154,1.055,1.193
		c0.017,0.001,0.034,0.002,0.05,0.002c0.077,0,0.154-0.004,0.228,0c-0.671,3.378-1.107,6.799-1.306,10.236
		c-0.011,0.409-0.009,0.806-0.016,1.209c-1.197,0.019-2.376,0.281-3.47,0.769C6.195,38.17,6.374,26.822,9.333,20.682
		C14.466,10.039,26.338,2.317,37.566,2.317h0.021c11.227,0,23.101,7.722,28.231,18.365c2.96,6.141,3.135,17.489,2.152,24.293
		c-1.091-0.487-2.27-0.749-3.466-0.77c-0.006-0.402-0.005-0.798-0.016-1.207c-0.096-3.31-0.543-6.6-1.334-9.815
		c0.245,0.052,0.492,0.103,0.747,0.141c0.055,0.008,0.111,0.013,0.167,0.013c0.621,0.021,1.141-0.467,1.162-1.088
		c0.02-0.587-0.415-1.09-0.998-1.156C62.316,30.883,60.551,29.95,59.297,28.483z M69.788,53.466c-0.522,3.146-3.772,6.8-6.875,7.285
		c0.563-2.401,0.971-4.842,1.219-7.299c0.669-0.746,1.655-1.125,2.651-1.021c0.635,0.054,1.197-0.41,1.266-1.044
		c0.062-0.639-0.405-1.205-1.043-1.268l0,0c-0.899-0.068-1.803,0.073-2.638,0.416c0.082-1.308,0.129-2.645,0.144-4.017
		c1.514-0.012,2.969,0.587,4.037,1.66c1.21,1.474,1.668,3.422,1.239,5.282V53.466z"/>
</g>
</svg>
